<svg width="24" height="24" viewBox="0 0 24 24" fill="none" xmlns="http://www.w3.org/2000/svg">
<path d="M14.3498 2H9.64977C8.60977 2 7.75977 2.84 7.75977 3.88V4.82C7.75977 5.86 8.59977 6.7 9.63977 6.7H14.3498C15.3898 6.7 16.2298 5.86 16.2298 4.82V3.88C16.2398 2.84 15.3898 2 14.3498 2Z" fill="#3D4754"/>
<path d="M17.24 4.81998C17.24 6.40998 15.94 7.70998 14.35 7.70998H9.65004C8.06004 7.70998 6.76004 6.40998 6.76004 4.81998C6.76004 4.25998 6.16004 3.90998 5.66004 4.16998C4.25004 4.91998 3.29004 6.40998 3.29004 8.11998V17.53C3.29004 19.99 5.30004 22 7.76004 22H16.24C18.7 22 20.71 19.99 20.71 17.53V8.11998C20.71 6.40998 19.75 4.91998 18.34 4.16998C17.84 3.90998 17.24 4.25998 17.24 4.81998ZM15.34 12.73L11.34 16.73C11.19 16.88 11 16.95 10.81 16.95C10.62 16.95 10.43 16.88 10.28 16.73L8.78004 15.23C8.49004 14.94 8.49004 14.46 8.78004 14.17C9.07004 13.88 9.55004 13.88 9.84004 14.17L10.81 15.14L14.28 11.67C14.57 11.38 15.05 11.38 15.34 11.67C15.63 11.96 15.63 12.44 15.34 12.73Z" fill="#3D4754"/>
</svg>
